<svg xmlns="http://www.w3.org/2000/svg" width="580.767" height="263.054" viewBox="0 0 580.767 263.054"><g transform="translate(-140 -63)"><path d="M65.32,161.11l11.045-56.26L96.172,149.5l19.885-44.61L127.1,161.11h-6.264l-7.006-36h-.1L96.172,163.3l-17.485-38.19h-.2l-7.006,36Z" transform="translate(202.148 162.758)"/><path d="M112.39,160.872V105.1h31.047v5.776H119.064v16.568h23.651V133.2H119.064v21.9h24.373v5.776Z" transform="translate(246.932 162.996)"/><path d="M145.6,160.872V105.1h11.65a54.509,54.509,0,0,1,12.8,1.249,30.728,30.728,0,0,1,11.338,5.464q10.274,7.9,10.264,21.232a25.367,25.367,0,0,1-10.089,20.783,29.884,29.884,0,0,1-11.318,5.776,55.072,55.072,0,0,1-13.133,1.249H145.6Zm6.908-5.776h5c8,0,14.441-1.854,19.378-5.542q7.874-6,7.884-16.568,0-10.655-7.884-16.568-7.318-5.562-19.378-5.542h-5Z" transform="translate(278.529 162.996)"/><rect width="7.572" height="55.772" transform="translate(504.021 268.096)"/><path d="M243.981,145.768H219.393l-6.947,15.1H205.44L232.019,105.1l25.876,55.772h-7.064Zm-2.459-5.5-9.66-21.349-9.913,21.349Z" transform="translate(335.463 162.996)"/><path d="M215.439,11.221,170.107,114.94,122.726,0l-47.4,114.94L29.994,11.221H0L75.325,175.376l47.4-113.788,47.381,113.788L245.432,11.221Z" transform="translate(140 63)" fill="#f1667f"/><path d="M379.1,5.75a82.069,82.069,0,0,0-80.653,66.8L274.04,39.3l-.644-.859a82.1,82.1,0,1,0,3.688,93.415l-17.192-23.417a55.993,55.993,0,1,1-52.045-76.613,46.786,46.786,0,0,1,5,.254,55.8,55.8,0,0,1,39.029,21.154c.254.273.468.566.7.859l.41.6.527.781,34.97,47.6,23.573,32.043,1.99,2.713A82.047,82.047,0,1,0,379.1,5.75m0,138.084A55.79,55.79,0,0,1,335,122.309c-.8-1-1.561-2.029-2.283-3.083l-.059-.078A55.99,55.99,0,1,1,379.1,143.834" transform="translate(259.643 68.471)" fill="#f1667f"/></g></svg>