<svg id="comment" xmlns="http://www.w3.org/2000/svg" width="15.343" height="14.116" viewBox="0 0 15.343 14.116">
  <path id="Path_1980" data-name="Path 1980" d="M13.234-1.332H2.11A2.112,2.112,0,0,0,0,.777V7.585A2.112,2.112,0,0,0,2.1,9.695v3.089l4.44-3.089h6.692a2.112,2.112,0,0,0,2.109-2.109V.777a2.112,2.112,0,0,0-2.109-2.109Zm1.21,8.917a1.212,1.212,0,0,1-1.21,1.21H6.26L3,11.063V8.8H2.11A1.212,1.212,0,0,1,.9,7.585V.777A1.212,1.212,0,0,1,2.11-.433H13.234a1.212,1.212,0,0,1,1.21,1.21Zm0,0" transform="translate(-0.001 1.332)" fill="#a3a3a3"/>
  <path id="Path_1981" data-name="Path 1981" d="M171.293,131.172h7.13v.9h-7.13Zm0,0" transform="translate(-167.187 -127.995)" fill="#a3a3a3"/>
  <path id="Path_1982" data-name="Path 1982" d="M171.293,211.172h7.13v.9h-7.13Zm0,0" transform="translate(-167.187 -206.078)" fill="#a3a3a3"/>
  <path id="Path_1983" data-name="Path 1983" d="M171.293,291.172h7.13v.9h-7.13Zm0,0" transform="translate(-167.187 -284.16)" fill="#a3a3a3"/>
</svg>
