<svg xmlns="http://www.w3.org/2000/svg" width="13.199" height="14.103" viewBox="0 0 13.199 14.103">
  <g id="Group_13236" data-name="Group 13236" transform="translate(0 0)">
    <g id="Group_3053" data-name="Group 3053">
      <path id="Path_650" data-name="Path 650" d="M215.408,328.438l-.188-.2a.669.669,0,0,0-.98.912l.188.2a.669.669,0,0,0,.98-.911Z" transform="translate(-202.388 -315.46)" fill="#fff"/>
      <path id="Path_651" data-name="Path 651" d="M206.076,318.4a5.439,5.439,0,0,0,1.427-4.211h0a5.457,5.457,0,1,0-5.436,5.976c.172,0,.347-.008.523-.025a5.418,5.418,0,0,0,2.468-.87l1.743,1.875a.669.669,0,0,0,.98-.911Zm-3.614.407a4.119,4.119,0,0,1-.783-8.2q.2-.019.394-.019a4.125,4.125,0,0,1,4.1,3.727h0A4.125,4.125,0,0,1,202.462,318.8Z" transform="translate(-196.614 -309.246)" fill="#fff"/>
    </g>
  </g>
</svg>
