<svg id="view" xmlns="http://www.w3.org/2000/svg" width="18.155" height="11.571" viewBox="0 0 18.155 11.571">
  <g id="Group_1664" data-name="Group 1664" transform="translate(0 0)">
    <g id="Group_1663" data-name="Group 1663">
      <path id="Path_1978" data-name="Path 1978" d="M18.04,98.268c-.162-.222-4.027-5.433-8.962-5.433S.277,98.046.115,98.267a.6.6,0,0,0,0,.706c.162.222,4.027,5.433,8.962,5.433s8.8-5.211,8.962-5.432A.6.6,0,0,0,18.04,98.268Zm-8.962,4.942c-3.636,0-6.784-3.458-7.716-4.589.931-1.132,4.073-4.588,7.716-4.588s6.784,3.458,7.716,4.589C15.863,99.753,12.721,103.209,9.077,103.209Z" transform="translate(0 -92.835)" fill="#a3a3a3"/>
    </g>
  </g>
  <g id="Group_1666" data-name="Group 1666" transform="translate(5.486 2.195)">
    <g id="Group_1665" data-name="Group 1665" transform="translate(0 0)">
      <path id="Path_1979" data-name="Path 1979" d="M158.313,154.725a3.591,3.591,0,1,0,3.591,3.591A3.6,3.6,0,0,0,158.313,154.725Zm0,5.985a2.394,2.394,0,1,1,2.394-2.394A2.4,2.4,0,0,1,158.313,160.71Z" transform="translate(-154.722 -154.725)" fill="#a3a3a3"/>
    </g>
  </g>
</svg>
